<svg width="49" height="48" viewBox="0 0 49 48" fill="none" xmlns="http://www.w3.org/2000/svg">
<path d="M11.7071 1.39008C13.0531 1.03508 14.7166 0.544576 15.4041 0.300576C16.0916 0.0570756 18.4541 -0.0634227 20.6541 0.0335773C22.8541 0.130577 26.0041 0.416594 27.6541 0.669594C29.3041 0.922594 31.1041 1.29759 31.6541 1.50309C32.2041 1.70859 33.1221 2.09908 33.6946 2.37058C34.2666 2.64208 35.1631 3.57808 35.6871 4.45008C36.2111 5.32258 36.8076 7.49858 37.0126 9.28608C37.2181 11.0736 37.5226 13.5721 37.6896 14.8381C37.8926 16.3776 37.7196 17.9516 37.1676 19.5881C36.7131 20.9346 35.9941 22.5716 35.5686 23.2261C35.1436 23.8806 33.5831 25.6291 32.1001 27.1116C30.4011 28.8111 28.6476 31.3126 27.3571 33.8796C26.2306 36.1196 24.8746 39.3141 24.3426 40.9786C23.8111 42.6431 23.0056 44.5741 22.5526 45.2706C22.0996 45.9666 21.3746 46.8101 20.9416 47.1451C20.5086 47.4801 19.7826 47.7616 19.3291 47.7701C18.8751 47.7791 17.6786 46.9606 16.6696 45.9516L14.8356 44.1176L15.0551 40.0766C15.1761 37.8546 15.5456 35.0236 15.8761 33.7861C16.2066 32.5486 16.5166 30.9736 16.5656 30.2861C16.6521 29.0636 16.5821 29.0381 13.4041 29.1236C11.6166 29.1711 9.19461 29.3641 8.02211 29.5516C6.70561 29.7621 5.02161 29.6361 3.61811 29.2216C2.36861 28.8526 0.980112 28.1466 0.533112 27.6521C-0.219388 26.8206 -0.20289 26.5306 0.75961 23.7461C1.59161 21.3396 1.69211 20.4551 1.26461 19.3216C0.84861 18.2196 0.923108 17.2901 1.60161 15.1341C2.08061 13.6096 3.24511 11.0806 4.18861 9.51359C5.13211 7.94709 5.90411 6.37708 5.90411 6.02558C5.90411 5.67358 6.65911 4.63207 7.58211 3.71107C8.62361 2.67157 10.1881 1.79108 11.7071 1.39008Z" fill="#808080"/>
<path d="M38.9726 5.58607C38.5546 3.77657 38.5526 2.95957 38.9666 2.46107C39.2941 2.06607 40.5211 1.78608 41.9231 1.78608C43.9666 1.78608 44.5546 2.02558 45.9136 3.41108C46.7901 4.30508 47.8181 5.93608 48.1981 7.03608C48.5781 8.13608 48.8891 10.7236 48.8891 12.7861C48.8891 14.8486 48.5801 17.4241 48.2021 18.5101C47.8241 19.5956 47.0166 21.0016 46.4071 21.6351C45.5566 22.5186 44.7486 22.7861 42.9291 22.7861C41.1926 22.7861 40.3166 22.5181 39.6521 21.7841C38.8556 20.9041 38.8206 20.5541 39.3636 18.9091C39.7511 17.7346 39.8991 15.3581 39.7606 12.5361C39.6391 10.0611 39.2846 6.93357 38.9726 5.58607Z" fill="#808080"/>
</svg>
