<svg width="53" height="54" viewBox="0 0 53 54" fill="none" xmlns="http://www.w3.org/2000/svg">
<path d="M15.1797 3.70398C15.3092 3.12998 15.8862 2.06148 16.4622 1.32898C17.3342 0.220481 17.9007 0.000478593 19.8482 0.0139786C21.1342 0.0224786 22.5412 0.303979 22.9742 0.638979C23.4072 0.973979 24.1707 1.876 24.6702 2.6435C25.1697 3.411 25.8117 4.986 26.0967 6.1435C26.3812 7.30099 26.6147 11.2855 26.6147 14.998C26.6147 18.7105 26.3752 22.7285 26.0827 23.927C25.7902 25.1255 25.1092 26.7005 24.5697 27.427C23.9242 28.2955 23.0182 28.804 21.9257 28.911C21.0117 29.001 19.7687 28.8095 19.1637 28.486C18.5592 28.162 17.5857 27.0455 17.0007 26.0045C16.4152 24.9635 15.9367 23.625 15.9367 23.03C15.9367 22.435 15.5862 21.2705 15.1577 20.442C14.5917 19.3475 14.0797 18.9785 13.2827 19.092C12.3237 19.2285 12.1457 19.654 11.8607 22.498C11.6812 24.2855 11.3717 26.3755 11.1737 27.142C10.9672 27.9395 10.2077 28.8495 9.39975 29.267C8.62225 29.669 7.22275 29.998 6.28925 29.998C5.29825 29.998 4.27225 29.634 3.82475 29.123C3.40275 28.6415 2.65475 27.4605 2.16275 26.498C1.67075 25.5355 1.04575 23.848 0.773748 22.748C0.502248 21.648 0.191246 17.4435 0.0837457 13.405C-0.104754 6.36797 -0.0607525 5.95946 1.13625 3.59796C2.11825 1.65946 2.71075 1.068 3.91075 0.828004C4.75025 0.660504 6.12325 0.660504 6.96275 0.828004C8.15725 1.067 8.75425 1.65801 9.71275 3.54901C10.3857 4.87751 10.9367 6.72499 10.9367 7.65399C10.9367 8.68649 11.3112 9.68198 11.8997 10.2145C12.4292 10.6935 13.2727 11.0075 13.7747 10.912C14.5182 10.7705 14.7102 10.1855 14.8152 7.74298C14.8862 6.09598 15.0502 4.27848 15.1797 3.70398Z" fill="#808080"/>
<path d="M18.9367 35.9885C18.9367 34.1115 19.2037 33.367 20.2547 32.316C21.0347 31.5365 22.1302 30.998 22.9367 30.998C23.7292 30.998 24.8307 31.528 25.5657 32.2635C26.2617 32.959 26.9872 34.3655 27.1782 35.3885C27.3692 36.411 27.6347 39.2445 27.7682 41.6845C27.9267 44.584 27.7817 46.8985 27.3487 48.366C26.9847 49.6005 26.1497 51.148 25.4937 51.8045C24.8372 52.461 23.9047 52.998 23.4212 52.998C22.9372 52.998 22.0282 52.4645 21.4007 51.813C20.7737 51.161 19.8812 49.417 19.4177 47.938C18.9302 46.3805 18.2832 45.248 17.8812 45.248C17.4307 45.248 17.0937 46.0385 16.9217 47.498C16.7757 48.7355 16.2437 50.4415 15.7382 51.289C15.2332 52.1365 14.3932 53.097 13.8707 53.423C13.1222 53.8905 12.6247 53.8625 11.5177 53.29C10.7457 52.8905 9.88975 52.268 9.61525 51.906C9.34125 51.544 8.86075 50.348 8.54725 49.248C8.23425 48.148 7.82775 46.4605 7.64425 45.498C7.46125 44.5355 7.31525 42.2855 7.32025 40.498C7.32525 38.7105 7.48925 36.4185 7.68425 35.4045C7.87925 34.3905 8.44375 33.194 8.93875 32.746C9.52575 32.215 10.5017 31.9865 11.7467 32.09C13.2712 32.216 13.8837 32.5895 14.7957 33.947C15.4847 34.9725 15.9367 36.3975 15.9367 37.5425C15.9367 38.5855 16.1757 39.587 16.4682 39.7675C16.7607 39.948 17.4357 39.7015 17.9682 39.2195C18.6652 38.589 18.9367 37.6825 18.9367 35.9885Z" fill="#808080"/>
<path fill-rule="evenodd" clip-rule="evenodd" d="M37.9632 1.05249C37.0152 1.63049 35.5902 2.79849 34.7957 3.64899C34.0017 4.49899 32.6642 6.5565 31.8237 8.2215C30.9832 9.886 30.0662 11.923 29.7862 12.748C29.5062 13.573 29.0942 16.3855 28.8702 18.998C28.6467 21.6105 28.4017 24.648 28.3252 25.748L28.1867 27.748L30.1867 27.894C31.9217 28.0205 32.4822 27.772 34.4167 26.019C36.4652 24.1625 36.8752 23.998 39.4532 23.998C42.1307 23.998 42.3827 24.113 44.9367 26.498C46.7737 28.2135 48.0352 28.998 48.9572 28.998C49.7417 28.998 50.8482 28.45 51.6187 27.68C52.6082 26.6905 52.9367 25.8575 52.9367 24.3405C52.9367 23.2285 52.7312 21.628 52.4802 20.7835C52.2287 19.939 51.5347 17.7855 50.9377 15.998C50.3412 14.2105 49.5162 11.848 49.1052 10.748C48.6937 9.64799 47.5792 7.26597 46.6277 5.45447C45.3582 3.03597 44.3867 1.87297 42.9742 1.07947C41.9162 0.484469 40.7437 -0.000998458 40.3687 1.54214e-06C39.9937 0.00100154 38.9112 0.474492 37.9632 1.05249ZM41.2517 16.873C41.0862 16.2545 40.9473 15.0165 40.9437 14.123C40.9397 13.2295 40.7252 12.498 40.4662 12.498C40.2072 12.498 39.8157 12.7795 39.5952 13.123C39.3752 13.467 38.9242 14.5205 38.5932 15.465C38.2622 16.4095 38.1047 17.3655 38.2437 17.59C38.3822 17.8145 39.1837 17.998 40.0247 17.998C41.3662 17.998 41.5162 17.86 41.2517 16.873Z" fill="#808080"/>
<path fill-rule="evenodd" clip-rule="evenodd" d="M37.1862 30.917C36.3607 31.4205 34.8417 33.253 33.8112 34.99C32.7802 36.7265 31.9367 38.35 31.9367 38.5975C31.9367 38.845 31.5492 39.7675 31.0752 40.648C30.6017 41.528 30.0787 43.9355 29.9142 45.998C29.7492 48.0605 29.4437 50.1265 29.2352 50.589C28.9497 51.2215 29.2472 51.633 30.4322 52.2455C31.7462 52.9255 32.1467 52.9515 32.8387 52.4045C33.2952 52.0435 34.1687 51.262 34.7802 50.6685C35.7537 49.7225 36.2822 49.622 39.0392 49.8565C41.7382 50.0855 42.3522 50.3285 43.3477 51.561C44.1252 52.523 44.9702 52.998 45.9047 52.998C46.7462 52.998 47.8242 52.4745 48.6187 51.68C49.3437 50.955 49.9367 50.127 49.9367 49.8405C49.9367 49.5535 49.7322 48.628 49.4817 47.7835C49.2317 46.939 48.7697 45.348 48.4547 44.248C48.1397 43.148 47.4642 41.2355 46.9537 39.998C46.4427 38.7605 45.7732 37.0655 45.4652 36.232C45.1572 35.398 44.4062 34.135 43.7962 33.425C43.1857 32.7155 41.8992 31.6545 40.9367 31.068C39.9742 30.4815 39.0742 30.0015 38.9367 30.0015C38.7992 30.0015 38.0112 30.4135 37.1862 30.917ZM39.7637 44.385C40.2457 43.9035 40.3812 43.2015 40.1617 42.326C39.9782 41.5955 39.6357 40.998 39.4002 40.998C39.1647 40.998 38.7392 41.433 38.4542 41.965C38.1697 42.497 37.9367 43.2715 37.9367 43.6855C37.9367 44.1 38.1832 44.5915 38.4847 44.7775C38.7862 44.964 39.3617 44.7875 39.7637 44.385Z" fill="#808080"/>
</svg>
