<svg width="49" height="48" viewBox="0 0 49 48" fill="none" xmlns="http://www.w3.org/2000/svg">
<path d="M25.8095 4.339C26.523 2.915 27.453 1.3565 27.877 0.875C28.301 0.3935 28.9615 0 29.345 0C29.7285 0 30.6745 0.327001 31.447 0.726501C32.2195 1.126 33.1255 2.114 33.4605 2.9225C33.846 3.853 33.987 5.9245 33.845 8.571C33.722 10.8695 33.3775 13.65 33.0795 14.75C32.781 15.85 32.399 17.3125 32.23 18L31.923 19.25L39.492 19.0785C46.26 18.925 47.1675 19.0035 48.068 19.8185C48.8655 20.54 49.008 21.096 48.753 22.49C48.576 23.458 48.2505 26.1625 48.0305 28.5C47.81 30.8375 47.4525 33.285 47.236 33.939C47.0195 34.593 46.0755 36.393 45.1385 37.939C44.2015 39.485 43.318 41.3125 43.175 42C43.032 42.6875 42.6515 43.6045 42.329 44.0375C42.0065 44.4705 41.0965 45.246 40.3065 45.76C39.5165 46.274 37.7165 46.9075 36.3065 47.167C34.8965 47.4265 31.38 47.634 28.4925 47.6275C25.605 47.6215 21.8925 47.4155 20.2425 47.17C18.5925 46.924 16.5415 46.305 15.6855 45.7935C14.829 45.2825 13.704 44.1635 13.1855 43.307C12.5625 42.279 12.114 40.2215 11.865 37.25C11.657 34.775 11.4695 32.1875 11.4485 31.5C11.427 30.8125 11.597 29.455 11.826 28.4835C12.055 27.512 12.887 25.712 13.6745 24.4835C14.462 23.255 15.9245 21.6655 16.9245 20.951C17.9245 20.2365 19.5095 18.3665 20.4465 16.796C21.384 15.225 22.682 12.362 23.3315 10.434C23.981 8.5055 25.096 5.7625 25.8095 4.339Z" fill="#808080"/>
<path d="M0.698544 30.25C1.07854 29.15 2.10654 27.5185 2.98304 26.625C4.22154 25.3625 4.99654 25 6.45754 25C7.68654 25 8.64304 25.3375 9.22004 25.975C9.91754 26.7455 10.028 27.401 9.74804 29.1C9.55304 30.2825 9.38054 32.9375 9.36454 35C9.34855 37.0625 9.58554 39.65 9.89154 40.75C10.1975 41.85 10.593 43.351 10.771 44.086C11.0455 45.221 10.865 45.5405 9.56804 46.211C8.72904 46.645 7.48604 47 6.80704 47C6.01404 47 4.79654 46.221 3.40704 44.824C2.15104 43.5615 0.980043 41.781 0.617543 40.582C0.274043 39.4455 -0.00395737 37.106 4.26307e-05 35.383C0.00404263 33.66 0.318544 31.35 0.698544 30.25Z" fill="#808080"/>
</svg>
