<svg width="117" height="115" viewBox="0 0 117 115" fill="none" xmlns="http://www.w3.org/2000/svg">
<path d="M101.5 51C101.5 59.7503 99.2745 67.9808 95.3586 75.1563C100.193 77.6464 103.5 82.6871 103.5 88.5C103.5 96.7843 96.7843 103.5 88.5 103.5C82.6871 103.5 77.6464 100.193 75.1563 95.3586C67.9808 99.2745 59.7503 101.5 51 101.5C23.1096 101.5 0.5 78.8904 0.5 51C0.5 23.1096 23.1096 0.5 51 0.5C78.8904 0.5 101.5 23.1096 101.5 51ZM108.5 114.5C104.082 114.5 100.5 110.918 100.5 106.5C100.5 102.082 104.082 98.5 108.5 98.5C112.918 98.5 116.5 102.082 116.5 106.5C116.5 110.918 112.918 114.5 108.5 114.5Z" fill="#F3F4F6" stroke="white"/>
<path d="M35.7071 32.3901C37.0531 32.0351 38.7166 31.5446 39.4041 31.3006C40.0916 31.0571 42.4541 30.9366 44.6541 31.0336C46.8541 31.1306 50.0041 31.4166 51.6541 31.6696C53.3041 31.9226 55.1041 32.2976 55.6541 32.5031C56.2041 32.7086 57.1221 33.0991 57.6946 33.3706C58.2666 33.6421 59.1631 34.5781 59.6871 35.4501C60.2111 36.3226 60.8076 38.4986 61.0126 40.2861C61.2181 42.0736 61.5226 44.5721 61.6896 45.8381C61.8926 47.3776 61.7196 48.9516 61.1676 50.5881C60.7131 51.9346 59.9941 53.5716 59.5686 54.2261C59.1436 54.8806 57.5831 56.6291 56.1001 58.1116C54.4011 59.8111 52.6476 62.3126 51.3571 64.8796C50.2306 67.1196 48.8746 70.3141 48.3426 71.9786C47.8111 73.6431 47.0056 75.5741 46.5526 76.2706C46.0996 76.9666 45.3746 77.8101 44.9416 78.1451C44.5086 78.4801 43.7826 78.7616 43.3291 78.7701C42.8751 78.7791 41.6786 77.9606 40.6696 76.9516L38.8356 75.1176L39.0551 71.0766C39.1761 68.8546 39.5456 66.0236 39.8761 64.7861C40.2066 63.5486 40.5166 61.9736 40.5656 61.2861C40.6521 60.0636 40.5821 60.0381 37.4041 60.1236C35.6166 60.1711 33.1946 60.3641 32.0221 60.5516C30.7056 60.7621 29.0216 60.6361 27.6181 60.2216C26.3686 59.8526 24.9801 59.1466 24.5331 58.6521C23.7806 57.8206 23.7971 57.5306 24.7596 54.7461C25.5916 52.3396 25.6921 51.4551 25.2646 50.3216C24.8486 49.2196 24.9231 48.2901 25.6016 46.1341C26.0806 44.6096 27.2451 42.0806 28.1886 40.5136C29.1321 38.9471 29.9041 37.3771 29.9041 37.0256C29.9041 36.6736 30.6591 35.6321 31.5821 34.7111C32.6236 33.6716 34.1881 32.7911 35.7071 32.3901Z" fill="#808080"/>
<path d="M62.9726 36.5861C62.5546 34.7766 62.5526 33.9596 62.9666 33.4611C63.2941 33.0661 64.5211 32.7861 65.9231 32.7861C67.9666 32.7861 68.5546 33.0256 69.9136 34.4111C70.7901 35.3051 71.8181 36.9361 72.1981 38.0361C72.5781 39.1361 72.8891 41.7236 72.8891 43.7861C72.8891 45.8486 72.5801 48.4241 72.2021 49.5101C71.8241 50.5956 71.0166 52.0016 70.4071 52.6351C69.5566 53.5186 68.7486 53.7861 66.9291 53.7861C65.1926 53.7861 64.3166 53.5181 63.6521 52.7841C62.8556 51.9041 62.8206 51.5541 63.3636 49.9091C63.7511 48.7346 63.8991 46.3581 63.7606 43.5361C63.6391 41.0611 63.2846 37.9336 62.9726 36.5861Z" fill="#808080"/>
</svg>
