<svg width="117" height="115" viewBox="0 0 117 115" fill="none" xmlns="http://www.w3.org/2000/svg">
<path d="M101.5 51C101.5 59.7503 99.2745 67.9808 95.3586 75.1563C100.193 77.6464 103.5 82.6871 103.5 88.5C103.5 96.7843 96.7843 103.5 88.5 103.5C82.6871 103.5 77.6464 100.193 75.1563 95.3586C67.9808 99.2745 59.7503 101.5 51 101.5C23.1096 101.5 0.5 78.8904 0.5 51C0.5 23.1096 23.1096 0.5 51 0.5C78.8904 0.5 101.5 23.1096 101.5 51ZM108.5 114.5C104.082 114.5 100.5 110.918 100.5 106.5C100.5 102.082 104.082 98.5 108.5 98.5C112.918 98.5 116.5 102.082 116.5 106.5C116.5 110.918 112.918 114.5 108.5 114.5Z" fill="#404040" stroke="black"/>
<path fill-rule="evenodd" clip-rule="evenodd" d="M44.071 29.4861C42.5975 30.2986 40.944 31.4756 40.3965 32.1021C39.849 32.7286 38.8605 34.3027 38.2005 35.5997C37.304 37.3607 37 38.7682 37 41.1562C37 43.9457 37.1685 44.5237 38.318 45.6732C39.2275 46.5822 40.1655 46.9912 41.343 46.9912C42.2815 46.9912 43.6695 46.6706 44.4275 46.2786C45.1855 45.8866 46.074 44.9762 46.4025 44.2552C46.731 43.5342 47 42.4086 47 41.7541C47 41.0606 47.5555 40.1267 48.331 39.5167C49.0635 38.9407 50.164 38.3436 50.7775 38.1896C51.3905 38.0356 52.5915 38.2712 53.446 38.7132C54.783 39.4047 55 39.7902 55 41.4732C55 43.2682 54.627 43.8052 50.4755 47.9892C47.9865 50.4967 45.5125 53.2666 44.977 54.1446C44.442 55.0226 44.003 56.4982 44.002 57.4232C44.001 58.3482 44.4785 59.9566 45.064 60.9976C45.649 62.0386 46.6185 63.1532 47.2185 63.4742C47.8185 63.7952 49.301 63.9866 50.513 63.8996C52.3795 63.7656 52.8925 63.4807 53.8585 62.0422C54.4865 61.1077 55 59.7132 55 58.9427C55 57.9082 55.4885 57.1757 56.868 56.1417C57.8955 55.3712 59.4215 54.0662 60.259 53.2412C61.096 52.4162 62.474 50.7287 63.321 49.4912C64.1675 48.2537 65.015 46.4537 65.204 45.4912C65.393 44.5287 65.67 43.0442 65.8195 42.1927C65.97 41.3352 65.7225 39.5502 65.2645 38.1927C64.8095 36.8442 64.0745 35.1787 63.6305 34.4912C63.1865 33.8037 62.145 32.6041 61.3155 31.8261C60.4865 31.0476 58.734 29.8666 57.421 29.2011C55.46 28.2071 54.293 27.9927 50.8915 28.0002C47.252 28.0082 46.4255 28.1881 44.071 29.4861ZM46.4435 69.1166C45.7245 69.7351 44.6565 71.0287 44.07 71.9912C43.4835 72.9537 43.0035 74.3037 43.0035 74.9912C43.0035 75.6787 43.443 76.9616 43.98 77.8416C44.5165 78.7221 45.6295 79.7911 46.453 80.2166C47.2765 80.6426 48.7265 80.9912 49.675 80.9912C50.9765 80.9912 51.8255 80.5656 53.132 79.2591C54.0845 78.3066 55.159 76.8142 55.5205 75.9422C56.108 74.5237 56.059 74.1347 55.059 72.2497C54.3865 70.9822 53.1785 69.7136 52.0275 69.0666C50.975 68.4751 49.582 67.9916 48.932 67.9916C48.282 67.9921 47.162 68.4981 46.4435 69.1166Z" fill="#808080"/>
</svg>
