<svg width="36" height="53" viewBox="0 0 36 53" fill="none" xmlns="http://www.w3.org/2000/svg">
<path d="M20.4918 5.57754C20.8498 4.35454 21.8963 2.59899 22.8178 1.67599C24.3833 0.10749 24.7098 -0.00197399 27.8178 2.60129e-05C30.2333 0.00102601 31.5808 0.268992 32.7433 0.977992C33.6238 1.51449 34.6928 2.62751 35.1183 3.45101C35.6218 4.42401 35.8928 6.30203 35.8928 8.81253C35.8928 10.938 35.6843 13.368 35.4293 14.2125C35.1743 15.057 34.2323 18.1105 33.3363 20.998C32.4403 23.8855 31.1873 27.307 30.5523 28.601C29.9178 29.895 28.9048 31.414 28.3013 31.976C27.6978 32.538 26.6278 32.991 25.9233 32.982C25.2193 32.9735 24.2883 32.692 23.8553 32.357C23.4223 32.022 22.6393 31.09 22.1153 30.2855C21.5913 29.481 20.9663 27.456 20.7258 25.7855C20.4853 24.115 20.1878 19.385 20.0648 15.2745C19.9068 10.0115 20.0333 7.14354 20.4918 5.57754Z" fill="#808080"/>
<path d="M1.62028 11.863C1.91728 11.457 2.94378 10.647 3.90178 10.063C4.85928 9.47951 6.43028 9.00149 7.39278 9.00149C8.35528 9.00149 9.85978 9.43899 10.7358 9.97299C11.6123 10.5075 12.6078 11.463 12.9483 12.096C13.2893 12.7295 13.7858 14.148 14.0518 15.248C14.3178 16.348 14.5108 18.4855 14.4808 19.998C14.4508 21.5105 14.2483 25.223 14.0308 28.248C13.7343 32.373 13.3653 34.2545 12.5543 35.7745C11.9593 36.889 10.8863 38.0685 10.1693 38.395C9.15878 38.8555 8.64778 38.8535 7.90028 38.3865C7.36928 38.055 6.38028 36.7635 5.70228 35.516C5.02378 34.2685 3.66428 30.8415 2.68078 27.9C1.69728 24.9585 0.892781 22.0495 0.892781 21.4355C0.892781 20.8215 0.633781 19.603 0.317281 18.7275C-0.130219 17.49 -0.109217 16.6315 0.411283 14.8685C0.779283 13.6215 1.32378 12.269 1.62028 11.863Z" fill="#808080"/>
<path d="M18.9493 40.877C19.5818 39.5265 20.6718 38.1105 21.3713 37.73C22.0708 37.3495 23.3853 37.029 24.2928 37.018C25.1998 37.007 26.6163 37.3465 27.4398 37.7725C28.2633 38.198 29.3763 39.267 29.9128 40.1475C30.4498 41.0275 30.8893 42.5355 30.8893 43.498C30.8893 44.4605 30.4498 45.9685 29.9128 46.8485C29.3763 47.729 28.2633 48.798 27.4398 49.2235C26.6163 49.6495 25.1773 49.998 24.2418 49.998C23.2958 49.998 21.8143 49.4985 20.9048 48.873C19.8398 48.141 19.0123 46.977 18.5338 45.5405C17.8408 43.4575 17.8643 43.194 18.9493 40.877Z" fill="#808080"/>
<path d="M4.89278 47.498C4.89278 45.983 5.25778 45.233 6.69278 43.798C8.06378 42.427 8.90378 41.998 10.2178 41.998C11.1663 41.998 12.5623 42.3185 13.3203 42.7105C14.0783 43.1025 14.9668 44.013 15.2953 44.734C15.6238 45.455 15.8928 46.7885 15.8928 47.6975C15.8928 48.6065 15.3788 50.1145 14.7508 51.049C13.7368 52.558 13.3258 52.7645 11.0743 52.8965C8.73678 53.0335 8.39828 52.9035 6.71628 51.2215C5.25828 49.7635 4.89278 49.0175 4.89278 47.498Z" fill="#808080"/>
</svg>
