<svg width="46" height="40" viewBox="0 0 46 40" fill="none" xmlns="http://www.w3.org/2000/svg">
<path fill-rule="evenodd" clip-rule="evenodd" d="M6.704 1.015C5.7885 1.573 4.529 2.54 3.9055 3.1635C3.2815 3.7875 2.3675 4.914 1.874 5.6675C1.38 6.421 0.7565 7.9845 0.488 9.142C0.2195 10.2995 0 12.034 0 12.9965C0 13.959 0.215 15.6465 0.478 16.7465C0.7405 17.8465 1.665 20.1415 2.5315 21.847C3.5665 23.8825 5.6115 26.461 8.4875 29.356C10.897 31.7805 13.6555 34.3155 14.618 34.989C15.5805 35.6625 16.674 36.511 17.0485 36.8745C17.4225 37.238 18.8215 38.0895 20.1565 38.766C21.492 39.443 22.895 39.9965 23.274 39.9965C23.653 39.9965 25.404 39.068 27.1655 37.933C28.927 36.798 30.4805 35.718 30.618 35.534C30.7555 35.3495 31.6555 34.6495 32.618 33.978C33.5805 33.307 35.518 31.6105 36.9235 30.2075C38.329 28.805 40.585 25.9895 41.9365 23.952C43.288 21.914 44.7075 19.3465 45.091 18.2465C45.4745 17.1465 45.7785 14.852 45.766 13.1475C45.754 11.4435 45.437 9.0105 45.0625 7.741C44.6875 6.4715 43.6985 4.688 42.864 3.7775C42.03 2.8665 40.5645 1.644 39.608 1.061C38.243 0.229 37.0595 0 34.118 0C31.188 0 29.991 0.23 28.6445 1.051C27.6965 1.629 26.285 2.7825 25.5075 3.6145C24.7305 4.4465 23.8745 5.492 23.606 5.937C23.1695 6.6615 23.026 6.6355 22.243 5.691C21.762 5.1105 20.918 4.069 20.368 3.377C19.818 2.685 18.5805 1.642 17.618 1.0595C16.248 0.23 15.0535 0 12.118 0C9.23 0 7.9855 0.2335 6.704 1.015Z" fill="white"/>
</svg>
