<svg width="117" height="115" viewBox="0 0 117 115" fill="none" xmlns="http://www.w3.org/2000/svg">
<path d="M15.5 51C15.5 59.7503 17.7255 67.9808 21.6414 75.1563C16.8065 77.6464 13.5 82.6871 13.5 88.5C13.5 96.7843 20.2157 103.5 28.5 103.5C34.3129 103.5 39.3536 100.193 41.8437 95.3586C49.0192 99.2745 57.2497 101.5 66 101.5C93.8904 101.5 116.5 78.8904 116.5 51C116.5 23.1096 93.8904 0.5 66 0.5C38.1096 0.5 15.5 23.1096 15.5 51ZM8.5 114.5C12.9183 114.5 16.5 110.918 16.5 106.5C16.5 102.082 12.9183 98.5 8.5 98.5C4.08172 98.5 0.5 102.082 0.5 106.5C0.5 110.918 4.08172 114.5 8.5 114.5Z" fill="#0A7CFF" stroke="#1A1A1A"/>
<path d="M51.7071 32.3901C53.0531 32.0351 54.7166 31.5446 55.4041 31.3006C56.0916 31.0571 58.4541 30.9366 60.6541 31.0336C62.8541 31.1306 66.0041 31.4166 67.6541 31.6696C69.3041 31.9226 71.1041 32.2976 71.6541 32.5031C72.2041 32.7086 73.1221 33.0991 73.6946 33.3706C74.2666 33.6421 75.1631 34.5781 75.6871 35.4501C76.2111 36.3226 76.8076 38.4986 77.0126 40.2861C77.2181 42.0736 77.5226 44.5721 77.6896 45.8381C77.8926 47.3776 77.7196 48.9516 77.1676 50.5881C76.7131 51.9346 75.9941 53.5716 75.5686 54.2261C75.1436 54.8806 73.5831 56.6291 72.1001 58.1116C70.4011 59.8111 68.6476 62.3126 67.3571 64.8796C66.2306 67.1196 64.8746 70.3141 64.3426 71.9786C63.8111 73.6431 63.0056 75.5741 62.5526 76.2706C62.0996 76.9666 61.3746 77.8101 60.9416 78.1451C60.5086 78.4801 59.7826 78.7616 59.3291 78.7701C58.8751 78.7791 57.6786 77.9606 56.6696 76.9516L54.8356 75.1176L55.0551 71.0766C55.1761 68.8546 55.5456 66.0236 55.8761 64.7861C56.2066 63.5486 56.5166 61.9736 56.5656 61.2861C56.6521 60.0636 56.5821 60.0381 53.4041 60.1236C51.6166 60.1711 49.1946 60.3641 48.0221 60.5516C46.7056 60.7621 45.0216 60.6361 43.6181 60.2216C42.3686 59.8526 40.9801 59.1466 40.5331 58.6521C39.7806 57.8206 39.7971 57.5306 40.7596 54.7461C41.5916 52.3396 41.6921 51.4551 41.2646 50.3216C40.8486 49.2196 40.9231 48.2901 41.6016 46.1341C42.0806 44.6096 43.2451 42.0806 44.1886 40.5136C45.1321 38.9471 45.9041 37.3771 45.9041 37.0256C45.9041 36.6736 46.6591 35.6321 47.5821 34.7111C48.6236 33.6716 50.1881 32.7911 51.7071 32.3901Z" fill="white"/>
<path d="M78.9726 36.5861C78.5546 34.7766 78.5526 33.9596 78.9666 33.4611C79.2941 33.0661 80.5211 32.7861 81.9231 32.7861C83.9666 32.7861 84.5546 33.0256 85.9136 34.4111C86.7901 35.3051 87.8181 36.9361 88.1981 38.0361C88.5781 39.1361 88.8891 41.7236 88.8891 43.7861C88.8891 45.8486 88.5801 48.4241 88.2021 49.5101C87.8241 50.5956 87.0166 52.0016 86.4071 52.6351C85.5566 53.5186 84.7486 53.7861 82.9291 53.7861C81.1926 53.7861 80.3166 53.5181 79.6521 52.7841C78.8556 51.9041 78.8206 51.5541 79.3636 49.9091C79.7511 48.7346 79.8991 46.3581 79.7606 43.5361C79.6391 41.0611 79.2846 37.9336 78.9726 36.5861Z" fill="white"/>
</svg>
