<svg width="117" height="115" viewBox="0 0 117 115" fill="none" xmlns="http://www.w3.org/2000/svg">
<path d="M15.5 51C15.5 59.7503 17.7255 67.9808 21.6414 75.1563C16.8065 77.6464 13.5 82.6871 13.5 88.5C13.5 96.7843 20.2157 103.5 28.5 103.5C34.3129 103.5 39.3536 100.193 41.8437 95.3586C49.0192 99.2745 57.2497 101.5 66 101.5C93.8904 101.5 116.5 78.8904 116.5 51C116.5 23.1096 93.8904 0.5 66 0.5C38.1096 0.5 15.5 23.1096 15.5 51ZM8.5 114.5C12.9183 114.5 16.5 110.918 16.5 106.5C16.5 102.082 12.9183 98.5 8.5 98.5C4.08172 98.5 0.5 102.082 0.5 106.5C0.5 110.918 4.08172 114.5 8.5 114.5Z" fill="#404040" stroke="black"/>
<path fill-rule="evenodd" clip-rule="evenodd" d="M60.071 29.4861C58.5975 30.2986 56.944 31.4756 56.3965 32.1021C55.849 32.7286 54.8605 34.3027 54.2005 35.5997C53.304 37.3607 53 38.7682 53 41.1562C53 43.9457 53.1685 44.5237 54.318 45.6732C55.2275 46.5822 56.1655 46.9912 57.343 46.9912C58.2815 46.9912 59.6695 46.6706 60.4275 46.2786C61.1855 45.8866 62.074 44.9762 62.4025 44.2552C62.731 43.5342 63 42.4086 63 41.7541C63 41.0606 63.5555 40.1267 64.331 39.5167C65.0635 38.9407 66.164 38.3436 66.7775 38.1896C67.3905 38.0356 68.5915 38.2712 69.446 38.7132C70.783 39.4047 71 39.7902 71 41.4732C71 43.2682 70.627 43.8052 66.4755 47.9892C63.9865 50.4967 61.5125 53.2666 60.977 54.1446C60.442 55.0226 60.003 56.4982 60.002 57.4232C60.001 58.3482 60.4785 59.9566 61.064 60.9976C61.649 62.0386 62.6185 63.1532 63.2185 63.4742C63.8185 63.7952 65.301 63.9866 66.513 63.8996C68.3795 63.7656 68.8925 63.4807 69.8585 62.0422C70.4865 61.1077 71 59.7132 71 58.9427C71 57.9082 71.4885 57.1757 72.868 56.1417C73.8955 55.3712 75.4215 54.0662 76.259 53.2412C77.096 52.4162 78.474 50.7287 79.321 49.4912C80.1675 48.2537 81.015 46.4537 81.204 45.4912C81.393 44.5287 81.67 43.0442 81.8195 42.1927C81.97 41.3352 81.7225 39.5502 81.2645 38.1927C80.8095 36.8442 80.0745 35.1787 79.6305 34.4912C79.1865 33.8037 78.145 32.6041 77.3155 31.8261C76.4865 31.0476 74.734 29.8666 73.421 29.2011C71.46 28.2071 70.293 27.9927 66.8915 28.0002C63.252 28.0082 62.4255 28.1881 60.071 29.4861ZM62.4435 69.1166C61.7245 69.7351 60.6565 71.0287 60.07 71.9912C59.4835 72.9537 59.0035 74.3037 59.0035 74.9912C59.0035 75.6787 59.443 76.9616 59.98 77.8416C60.5165 78.7221 61.6295 79.7911 62.453 80.2166C63.2765 80.6426 64.7265 80.9912 65.675 80.9912C66.9765 80.9912 67.8255 80.5656 69.132 79.2591C70.0845 78.3066 71.159 76.8142 71.5205 75.9422C72.108 74.5237 72.059 74.1347 71.059 72.2497C70.3865 70.9822 69.1785 69.7136 68.0275 69.0666C66.975 68.4751 65.582 67.9916 64.932 67.9916C64.282 67.9921 63.162 68.4981 62.4435 69.1166Z" fill="#808080"/>
</svg>
