<svg width="29" height="53" viewBox="0 0 29 53" fill="none" xmlns="http://www.w3.org/2000/svg">
<path fill-rule="evenodd" clip-rule="evenodd" d="M7.071 1.48615C5.5975 2.29865 3.944 3.47562 3.3965 4.10212C2.849 4.72862 1.8605 6.30267 1.2005 7.59967C0.304 9.36067 0 10.7682 0 13.1562C0 15.9457 0.168501 16.5237 1.318 17.6732C2.2275 18.5822 3.1655 18.9912 4.343 18.9912C5.2815 18.9912 6.6695 18.6706 7.4275 18.2786C8.1855 17.8866 9.074 16.9762 9.4025 16.2552C9.731 15.5342 10 14.4086 10 13.7541C10 13.0606 10.5555 12.1267 11.331 11.5167C12.0635 10.9407 13.164 10.3436 13.7775 10.1896C14.3905 10.0356 15.5915 10.2712 16.446 10.7132C17.783 11.4047 18 11.7902 18 13.4732C18 15.2682 17.627 15.8052 13.4755 19.9892C10.9865 22.4967 8.5125 25.2666 7.977 26.1446C7.442 27.0226 7.003 28.4982 7.002 29.4232C7.001 30.3482 7.4785 31.9566 8.064 32.9976C8.649 34.0386 9.6185 35.1532 10.2185 35.4742C10.8185 35.7952 12.301 35.9866 13.513 35.8996C15.3795 35.7656 15.8925 35.4807 16.8585 34.0422C17.4865 33.1077 18 31.7132 18 30.9427C18 29.9082 18.4885 29.1757 19.868 28.1417C20.8955 27.3712 22.4215 26.0662 23.259 25.2412C24.096 24.4162 25.474 22.7287 26.321 21.4912C27.1675 20.2537 28.015 18.4537 28.204 17.4912C28.393 16.5287 28.67 15.0442 28.8195 14.1927C28.97 13.3352 28.7225 11.5502 28.2645 10.1927C27.8095 8.84419 27.0745 7.17865 26.6305 6.49115C26.1865 5.80365 25.145 4.60412 24.3155 3.82612C23.4865 3.04762 21.734 1.86662 20.421 1.20112C18.46 0.207115 17.293 -0.00731251 13.8915 0.000187487C10.252 0.00818749 9.4255 0.188149 7.071 1.48615ZM9.4435 41.1166C8.7245 41.7351 7.6565 43.0287 7.07 43.9912C6.4835 44.9537 6.0035 46.3037 6.0035 46.9912C6.0035 47.6787 6.443 48.9616 6.98 49.8416C7.5165 50.7221 8.6295 51.7911 9.453 52.2166C10.2765 52.6426 11.7265 52.9912 12.675 52.9912C13.9765 52.9912 14.8255 52.5656 16.132 51.2591C17.0845 50.3066 18.159 48.8142 18.5205 47.9422C19.108 46.5237 19.059 46.1347 18.059 44.2497C17.3865 42.9822 16.1785 41.7136 15.0275 41.0666C13.975 40.4751 12.582 39.9916 11.932 39.9916C11.282 39.9921 10.162 40.4981 9.4435 41.1166Z" fill="#808080"/>
</svg>
