<svg width="117" height="115" viewBox="0 0 117 115" fill="none" xmlns="http://www.w3.org/2000/svg">
<path d="M101.5 51C101.5 59.7503 99.2745 67.9808 95.3586 75.1563C100.193 77.6464 103.5 82.6871 103.5 88.5C103.5 96.7843 96.7843 103.5 88.5 103.5C82.6871 103.5 77.6464 100.193 75.1563 95.3586C67.9808 99.2745 59.7503 101.5 51 101.5C23.1096 101.5 0.5 78.8904 0.5 51C0.5 23.1096 23.1096 0.5 51 0.5C78.8904 0.5 101.5 23.1096 101.5 51ZM108.5 114.5C104.082 114.5 100.5 110.918 100.5 106.5C100.5 102.082 104.082 98.5 108.5 98.5C112.918 98.5 116.5 102.082 116.5 106.5C116.5 110.918 112.918 114.5 108.5 114.5Z" stroke="white"/>
<path fill-rule="evenodd" clip-rule="evenodd" d="M33.704 36.015C32.7885 36.573 31.529 37.54 30.9055 38.1635C30.2815 38.7875 29.3675 39.914 28.874 40.6675C28.38 41.421 27.7565 42.9845 27.488 44.142C27.2195 45.2995 27 47.034 27 47.9965C27 48.959 27.215 50.6465 27.478 51.7465C27.7405 52.8465 28.665 55.1415 29.5315 56.847C30.5665 58.8825 32.6115 61.461 35.4875 64.356C37.897 66.7805 40.6555 69.3155 41.618 69.989C42.5805 70.6625 43.674 71.511 44.0485 71.8745C44.4225 72.238 45.8215 73.0895 47.1565 73.766C48.492 74.443 49.895 74.9965 50.274 74.9965C50.653 74.9965 52.404 74.068 54.1655 72.933C55.927 71.798 57.4805 70.718 57.618 70.534C57.7555 70.3495 58.6555 69.6495 59.618 68.978C60.5805 68.307 62.518 66.6105 63.9235 65.2075C65.329 63.805 67.585 60.9895 68.9365 58.952C70.288 56.914 71.7075 54.3465 72.091 53.2465C72.4745 52.1465 72.7785 49.852 72.766 48.1475C72.754 46.4435 72.437 44.0105 72.0625 42.741C71.6875 41.4715 70.6985 39.688 69.864 38.7775C69.03 37.8665 67.5645 36.644 66.608 36.061C65.243 35.229 64.0595 35 61.118 35C58.188 35 56.991 35.23 55.6445 36.051C54.6965 36.629 53.285 37.7825 52.5075 38.6145C51.7305 39.4465 50.8745 40.492 50.606 40.937C50.1695 41.6615 50.026 41.6355 49.243 40.691C48.762 40.1105 47.918 39.069 47.368 38.377C46.818 37.685 45.5805 36.642 44.618 36.0595C43.248 35.23 42.0535 35 39.118 35C36.23 35 34.9855 35.2335 33.704 36.015Z" fill="#FF69B4"/>
</svg>
