<svg width="117" height="115" viewBox="0 0 117 115" fill="none" xmlns="http://www.w3.org/2000/svg">
<path d="M101.5 51C101.5 59.7503 99.2745 67.9808 95.3586 75.1563C100.193 77.6464 103.5 82.6871 103.5 88.5C103.5 96.7843 96.7843 103.5 88.5 103.5C82.6871 103.5 77.6464 100.193 75.1563 95.3586C67.9808 99.2745 59.7503 101.5 51 101.5C23.1096 101.5 0.5 78.8904 0.5 51C0.5 23.1096 23.1096 0.5 51 0.5C78.8904 0.5 101.5 23.1096 101.5 51ZM108.5 114.5C104.082 114.5 100.5 110.918 100.5 106.5C100.5 102.082 104.082 98.5 108.5 98.5C112.918 98.5 116.5 102.082 116.5 106.5C116.5 110.918 112.918 114.5 108.5 114.5Z" stroke="white"/>
<path d="M49.8095 31.339C50.523 29.915 51.453 28.3565 51.877 27.875C52.301 27.3935 52.9615 27 53.345 27C53.7285 27 54.6745 27.327 55.447 27.7265C56.2195 28.126 57.1255 29.114 57.4605 29.9225C57.846 30.853 57.987 32.9245 57.845 35.571C57.722 37.8695 57.3775 40.65 57.0795 41.75C56.781 42.85 56.399 44.3125 56.23 45L55.923 46.25L63.492 46.0785C70.26 45.925 71.1675 46.0035 72.068 46.8185C72.8655 47.54 73.008 48.096 72.753 49.49C72.576 50.458 72.2505 53.1625 72.0305 55.5C71.81 57.8375 71.4525 60.285 71.236 60.939C71.0195 61.593 70.0755 63.393 69.1385 64.939C68.2015 66.485 67.318 68.3125 67.175 69C67.032 69.6875 66.6515 70.6045 66.329 71.0375C66.0065 71.4705 65.0965 72.246 64.3065 72.76C63.5165 73.274 61.7165 73.9075 60.3065 74.167C58.8965 74.4265 55.38 74.634 52.4925 74.6275C49.605 74.6215 45.8925 74.4155 44.2425 74.17C42.5925 73.924 40.5415 73.305 39.6855 72.7935C38.829 72.2825 37.704 71.1635 37.1855 70.307C36.5625 69.279 36.114 67.2215 35.865 64.25C35.657 61.775 35.4695 59.1875 35.4485 58.5C35.427 57.8125 35.597 56.455 35.826 55.4835C36.055 54.512 36.887 52.712 37.6745 51.4835C38.462 50.255 39.9245 48.6655 40.9245 47.951C41.9245 47.2365 43.5095 45.3665 44.4465 43.796C45.384 42.225 46.682 39.362 47.3315 37.434C47.981 35.5055 49.096 32.7625 49.8095 31.339Z" fill="white"/>
<path d="M24.6985 57.25C25.0785 56.15 26.1065 54.5185 26.983 53.625C28.2215 52.3625 28.9965 52 30.4575 52C31.6865 52 32.643 52.3375 33.22 52.975C33.9175 53.7455 34.028 54.401 33.748 56.1C33.553 57.2825 33.3805 59.9375 33.3645 62C33.3485 64.0625 33.5855 66.65 33.8915 67.75C34.1975 68.85 34.593 70.351 34.771 71.086C35.0455 72.221 34.865 72.5405 33.568 73.211C32.729 73.645 31.486 74 30.807 74C30.014 74 28.7965 73.221 27.407 71.824C26.151 70.5615 24.98 68.781 24.6175 67.582C24.274 66.4455 23.996 64.106 24 62.383C24.004 60.66 24.3185 58.35 24.6985 57.25Z" fill="white"/>
</svg>
