<svg width="117" height="115" viewBox="0 0 117 115" fill="none" xmlns="http://www.w3.org/2000/svg">
<path d="M15.5 51C15.5 59.7503 17.7255 67.9808 21.6414 75.1563C16.8065 77.6464 13.5 82.6871 13.5 88.5C13.5 96.7843 20.2157 103.5 28.5 103.5C34.3129 103.5 39.3536 100.193 41.8437 95.3586C49.0192 99.2745 57.2497 101.5 66 101.5C93.8904 101.5 116.5 78.8904 116.5 51C116.5 23.1096 93.8904 0.5 66 0.5C38.1096 0.5 15.5 23.1096 15.5 51ZM8.5 114.5C12.9183 114.5 16.5 110.918 16.5 106.5C16.5 102.082 12.9183 98.5 8.5 98.5C4.08172 98.5 0.5 102.082 0.5 106.5C0.5 110.918 4.08172 114.5 8.5 114.5Z" fill="#F3F4F6" stroke="white"/>
<path d="M65.8095 31.339C66.523 29.915 67.453 28.3565 67.877 27.875C68.301 27.3935 68.9615 27 69.345 27C69.7285 27 70.6745 27.327 71.447 27.7265C72.2195 28.126 73.1255 29.114 73.4605 29.9225C73.846 30.853 73.987 32.9245 73.845 35.571C73.722 37.8695 73.3775 40.65 73.0795 41.75C72.781 42.85 72.399 44.3125 72.23 45L71.923 46.25L79.492 46.0785C86.26 45.925 87.1675 46.0035 88.068 46.8185C88.8655 47.54 89.008 48.096 88.753 49.49C88.576 50.458 88.2505 53.1625 88.0305 55.5C87.81 57.8375 87.4525 60.285 87.236 60.939C87.0195 61.593 86.0755 63.393 85.1385 64.939C84.2015 66.485 83.318 68.3125 83.175 69C83.032 69.6875 82.6515 70.6045 82.329 71.0375C82.0065 71.4705 81.0965 72.246 80.3065 72.76C79.5165 73.274 77.7165 73.9075 76.3065 74.167C74.8965 74.4265 71.38 74.634 68.4925 74.6275C65.605 74.6215 61.8925 74.4155 60.2425 74.17C58.5925 73.924 56.5415 73.305 55.6855 72.7935C54.829 72.2825 53.704 71.1635 53.1855 70.307C52.5625 69.279 52.114 67.2215 51.865 64.25C51.657 61.775 51.4695 59.1875 51.4485 58.5C51.427 57.8125 51.597 56.455 51.826 55.4835C52.055 54.512 52.887 52.712 53.6745 51.4835C54.462 50.255 55.9245 48.6655 56.9245 47.951C57.9245 47.2365 59.5095 45.3665 60.4465 43.796C61.384 42.225 62.682 39.362 63.3315 37.434C63.981 35.5055 65.096 32.7625 65.8095 31.339Z" fill="#808080"/>
<path d="M40.6985 57.25C41.0785 56.15 42.1065 54.5185 42.983 53.625C44.2215 52.3625 44.9965 52 46.4575 52C47.6865 52 48.643 52.3375 49.22 52.975C49.9175 53.7455 50.028 54.401 49.748 56.1C49.553 57.2825 49.3805 59.9375 49.3645 62C49.3485 64.0625 49.5855 66.65 49.8915 67.75C50.1975 68.85 50.593 70.351 50.771 71.086C51.0455 72.221 50.865 72.5405 49.568 73.211C48.729 73.645 47.486 74 46.807 74C46.014 74 44.7965 73.221 43.407 71.824C42.151 70.5615 40.98 68.781 40.6175 67.582C40.274 66.4455 39.996 64.106 40 62.383C40.004 60.66 40.3185 58.35 40.6985 57.25Z" fill="#808080"/>
</svg>
