<svg width="117" height="115" viewBox="0 0 117 115" fill="none" xmlns="http://www.w3.org/2000/svg">
<path d="M15.5 51C15.5 59.7503 17.7255 67.9808 21.6414 75.1563C16.8065 77.6464 13.5 82.6871 13.5 88.5C13.5 96.7843 20.2157 103.5 28.5 103.5C34.3129 103.5 39.3536 100.193 41.8437 95.3586C49.0192 99.2745 57.2497 101.5 66 101.5C93.8904 101.5 116.5 78.8904 116.5 51C116.5 23.1096 93.8904 0.5 66 0.5C38.1096 0.5 15.5 23.1096 15.5 51ZM8.5 114.5C12.9183 114.5 16.5 110.918 16.5 106.5C16.5 102.082 12.9183 98.5 8.5 98.5C4.08172 98.5 0.5 102.082 0.5 106.5C0.5 110.918 4.08172 114.5 8.5 114.5Z" stroke="#1E1E1E"/>
<path fill-rule="evenodd" clip-rule="evenodd" d="M49.704 36.015C48.7885 36.573 47.529 37.54 46.9055 38.1635C46.2815 38.7875 45.3675 39.914 44.874 40.6675C44.38 41.421 43.7565 42.9845 43.488 44.142C43.2195 45.2995 43 47.034 43 47.9965C43 48.959 43.215 50.6465 43.478 51.7465C43.7405 52.8465 44.665 55.1415 45.5315 56.847C46.5665 58.8825 48.6115 61.461 51.4875 64.356C53.897 66.7805 56.6555 69.3155 57.618 69.989C58.5805 70.6625 59.674 71.511 60.0485 71.8745C60.4225 72.238 61.8215 73.0895 63.1565 73.766C64.492 74.443 65.895 74.9965 66.274 74.9965C66.653 74.9965 68.404 74.068 70.1655 72.933C71.927 71.798 73.4805 70.718 73.618 70.534C73.7555 70.3495 74.6555 69.6495 75.618 68.978C76.5805 68.307 78.518 66.6105 79.9235 65.2075C81.329 63.805 83.585 60.9895 84.9365 58.952C86.288 56.914 87.7075 54.3465 88.091 53.2465C88.4745 52.1465 88.7785 49.852 88.766 48.1475C88.754 46.4435 88.437 44.0105 88.0625 42.741C87.6875 41.4715 86.6985 39.688 85.864 38.7775C85.03 37.8665 83.5645 36.644 82.608 36.061C81.243 35.229 80.0595 35 77.118 35C74.188 35 72.991 35.23 71.6445 36.051C70.6965 36.629 69.285 37.7825 68.5075 38.6145C67.7305 39.4465 66.8745 40.492 66.606 40.937C66.1695 41.6615 66.026 41.6355 65.243 40.691C64.762 40.1105 63.918 39.069 63.368 38.377C62.818 37.685 61.5805 36.642 60.618 36.0595C59.248 35.23 58.0535 35 55.118 35C52.23 35 50.9855 35.2335 49.704 36.015Z" fill="#FF69B4"/>
</svg>
