<svg width="117" height="115" viewBox="0 0 117 115" fill="none" xmlns="http://www.w3.org/2000/svg">
<path d="M15.5 51C15.5 59.7503 17.7255 67.9808 21.6414 75.1563C16.8065 77.6464 13.5 82.6871 13.5 88.5C13.5 96.7843 20.2157 103.5 28.5 103.5C34.3129 103.5 39.3536 100.193 41.8437 95.3586C49.0192 99.2745 57.2497 101.5 66 101.5C93.8904 101.5 116.5 78.8904 116.5 51C116.5 23.1096 93.8904 0.5 66 0.5C38.1096 0.5 15.5 23.1096 15.5 51ZM8.5 114.5C12.9183 114.5 16.5 110.918 16.5 106.5C16.5 102.082 12.9183 98.5 8.5 98.5C4.08172 98.5 0.5 102.082 0.5 106.5C0.5 110.918 4.08172 114.5 8.5 114.5Z" stroke="#1E1E1E"/>
<path d="M55.1797 30.704C55.3092 30.13 55.8862 29.0615 56.4622 28.329C57.3342 27.2205 57.9007 27.0005 59.8482 27.014C61.1342 27.0225 62.5412 27.304 62.9742 27.639C63.4072 27.974 64.1707 28.876 64.6702 29.6435C65.1697 30.411 65.8117 31.986 66.0967 33.1435C66.3812 34.301 66.6147 38.2855 66.6147 41.998C66.6147 45.7105 66.3752 49.7285 66.0827 50.927C65.7902 52.1255 65.1092 53.7005 64.5697 54.427C63.9242 55.2955 63.0182 55.804 61.9257 55.911C61.0117 56.001 59.7687 55.8095 59.1637 55.486C58.5592 55.162 57.5857 54.0455 57.0007 53.0045C56.4152 51.9635 55.9367 50.625 55.9367 50.03C55.9367 49.435 55.5862 48.2705 55.1577 47.442C54.5917 46.3475 54.0797 45.9785 53.2827 46.092C52.3237 46.2285 52.1457 46.654 51.8607 49.498C51.6812 51.2855 51.3717 53.3755 51.1737 54.142C50.9672 54.9395 50.2077 55.8495 49.3997 56.267C48.6222 56.669 47.2227 56.998 46.2892 56.998C45.2982 56.998 44.2722 56.634 43.8247 56.123C43.4027 55.6415 42.6547 54.4605 42.1627 53.498C41.6707 52.5355 41.0457 50.848 40.7737 49.748C40.5022 48.648 40.1912 44.4435 40.0837 40.405C39.8952 33.368 39.9392 32.9595 41.1362 30.598C42.1182 28.6595 42.7107 28.068 43.9107 27.828C44.7502 27.6605 46.1232 27.6605 46.9627 27.828C48.1572 28.067 48.7542 28.658 49.7127 30.549C50.3857 31.8775 50.9367 33.725 50.9367 34.654C50.9367 35.6865 51.3112 36.682 51.8997 37.2145C52.4292 37.6935 53.2727 38.0075 53.7747 37.912C54.5182 37.7705 54.7102 37.1855 54.8152 34.743C54.8862 33.096 55.0502 31.2785 55.1797 30.704Z" fill="white"/>
<path d="M58.9367 62.9885C58.9367 61.1115 59.2037 60.367 60.2547 59.316C61.0347 58.5365 62.1302 57.998 62.9367 57.998C63.7292 57.998 64.8307 58.528 65.5657 59.2635C66.2617 59.959 66.9872 61.3655 67.1782 62.3885C67.3692 63.411 67.6347 66.2445 67.7682 68.6845C67.9267 71.584 67.7817 73.8985 67.3487 75.366C66.9847 76.6005 66.1497 78.148 65.4937 78.8045C64.8372 79.461 63.9047 79.998 63.4212 79.998C62.9372 79.998 62.0282 79.4645 61.4007 78.813C60.7737 78.161 59.8812 76.417 59.4177 74.938C58.9302 73.3805 58.2832 72.248 57.8812 72.248C57.4307 72.248 57.0937 73.0385 56.9217 74.498C56.7757 75.7355 56.2437 77.4415 55.7382 78.289C55.2332 79.1365 54.3932 80.097 53.8707 80.423C53.1222 80.8905 52.6247 80.8625 51.5177 80.29C50.7457 79.8905 49.8897 79.268 49.6152 78.906C49.3412 78.544 48.8607 77.348 48.5472 76.248C48.2342 75.148 47.8277 73.4605 47.6442 72.498C47.4612 71.5355 47.3152 69.2855 47.3202 67.498C47.3252 65.7105 47.4892 63.4185 47.6842 62.4045C47.8792 61.3905 48.4437 60.194 48.9387 59.746C49.5257 59.215 50.5017 58.9865 51.7467 59.09C53.2712 59.216 53.8837 59.5895 54.7957 60.947C55.4847 61.9725 55.9367 63.3975 55.9367 64.5425C55.9367 65.5855 56.1757 66.587 56.4682 66.7675C56.7607 66.948 57.4357 66.7015 57.9682 66.2195C58.6652 65.589 58.9367 64.6825 58.9367 62.9885Z" fill="white"/>
<path fill-rule="evenodd" clip-rule="evenodd" d="M77.9632 28.0525C77.0152 28.6305 75.5902 29.7985 74.7957 30.649C74.0017 31.499 72.6642 33.5565 71.8237 35.2215C70.9832 36.886 70.0662 38.923 69.7862 39.748C69.5062 40.573 69.0942 43.3855 68.8702 45.998C68.6467 48.6105 68.4017 51.648 68.3252 52.748L68.1867 54.748L70.1867 54.894C71.9217 55.0205 72.4822 54.772 74.4167 53.019C76.4652 51.1625 76.8752 50.998 79.4532 50.998C82.1307 50.998 82.3827 51.113 84.9367 53.498C86.7737 55.2135 88.0352 55.998 88.9572 55.998C89.7417 55.998 90.8482 55.45 91.6187 54.68C92.6082 53.6905 92.9367 52.8575 92.9367 51.3405C92.9367 50.2285 92.7312 48.628 92.4802 47.7835C92.2287 46.939 91.5347 44.7855 90.9377 42.998C90.3412 41.2105 89.5162 38.848 89.1052 37.748C88.6937 36.648 87.5792 34.266 86.6277 32.4545C85.3582 30.036 84.3867 28.873 82.9742 28.0795C81.9162 27.4845 80.7437 26.999 80.3687 27C79.9937 27.001 78.9112 27.4745 77.9632 28.0525ZM81.2517 43.873C81.0862 43.2545 80.9473 42.0165 80.9437 41.123C80.9397 40.2295 80.7252 39.498 80.4662 39.498C80.2072 39.498 79.8157 39.7795 79.5952 40.123C79.3752 40.467 78.9242 41.5205 78.5932 42.465C78.2622 43.4095 78.1047 44.3655 78.2437 44.59C78.3822 44.8145 79.1837 44.998 80.0247 44.998C81.3662 44.998 81.5162 44.86 81.2517 43.873Z" fill="white"/>
<path fill-rule="evenodd" clip-rule="evenodd" d="M77.1862 57.917C76.3607 58.4205 74.8417 60.253 73.8112 61.99C72.7802 63.7265 71.9367 65.35 71.9367 65.5975C71.9367 65.845 71.5492 66.7675 71.0752 67.648C70.6017 68.528 70.0787 70.9355 69.9142 72.998C69.7492 75.0605 69.4437 77.1265 69.2352 77.589C68.9497 78.2215 69.2472 78.633 70.4322 79.2455C71.7462 79.9255 72.1467 79.9515 72.8387 79.4045C73.2952 79.0435 74.1687 78.262 74.7802 77.6685C75.7537 76.7225 76.2822 76.622 79.0392 76.8565C81.7382 77.0855 82.3522 77.3285 83.3477 78.561C84.1252 79.523 84.9702 79.998 85.9047 79.998C86.7462 79.998 87.8242 79.4745 88.6187 78.68C89.3437 77.955 89.9367 77.127 89.9367 76.8405C89.9367 76.5535 89.7322 75.628 89.4817 74.7835C89.2317 73.939 88.7697 72.348 88.4547 71.248C88.1397 70.148 87.4642 68.2355 86.9537 66.998C86.4427 65.7605 85.7732 64.0655 85.4652 63.232C85.1572 62.398 84.4062 61.135 83.7962 60.425C83.1857 59.7155 81.8992 58.6545 80.9367 58.068C79.9742 57.4815 79.0742 57.0015 78.9367 57.0015C78.7992 57.0015 78.0112 57.4135 77.1862 57.917ZM79.7637 71.385C80.2457 70.9035 80.3812 70.2015 80.1617 69.326C79.9782 68.5955 79.6357 67.998 79.4002 67.998C79.1647 67.998 78.7392 68.433 78.4542 68.965C78.1697 69.497 77.9367 70.2715 77.9367 70.6855C77.9367 71.1 78.1832 71.5915 78.4847 71.7775C78.7862 71.964 79.3617 71.7875 79.7637 71.385Z" fill="white"/>
</svg>
