<svg width="117" height="115" viewBox="0 0 117 115" fill="none" xmlns="http://www.w3.org/2000/svg">
<path d="M15.5 51C15.5 59.7503 17.7255 67.9808 21.6414 75.1563C16.8065 77.6464 13.5 82.6871 13.5 88.5C13.5 96.7843 20.2157 103.5 28.5 103.5C34.3129 103.5 39.3536 100.193 41.8437 95.3586C49.0192 99.2745 57.2497 101.5 66 101.5C93.8904 101.5 116.5 78.8904 116.5 51C116.5 23.1096 93.8904 0.5 66 0.5C38.1096 0.5 15.5 23.1096 15.5 51ZM8.5 114.5C12.9183 114.5 16.5 110.918 16.5 106.5C16.5 102.082 12.9183 98.5 8.5 98.5C4.08172 98.5 0.5 102.082 0.5 106.5C0.5 110.918 4.08172 114.5 8.5 114.5Z" fill="#0A7CFF" stroke="#1A1A1A"/>
<path d="M68.4918 31.5775C68.8498 30.3545 69.8963 28.599 70.8178 27.676C72.3833 26.1075 72.7098 25.998 75.8178 26C78.2333 26.001 79.5808 26.269 80.7433 26.978C81.6238 27.5145 82.6928 28.6275 83.1183 29.451C83.6218 30.424 83.8928 32.302 83.8928 34.8125C83.8928 36.938 83.6843 39.368 83.4293 40.2125C83.1743 41.057 82.2323 44.1105 81.3363 46.998C80.4403 49.8855 79.1873 53.307 78.5523 54.601C77.9178 55.895 76.9048 57.414 76.3013 57.976C75.6978 58.538 74.6278 58.991 73.9233 58.982C73.2193 58.9735 72.2883 58.692 71.8553 58.357C71.4223 58.022 70.6393 57.09 70.1153 56.2855C69.5913 55.481 68.9663 53.456 68.7258 51.7855C68.4853 50.115 68.1878 45.385 68.0648 41.2745C67.9068 36.0115 68.0333 33.1435 68.4918 31.5775Z" fill="white"/>
<path d="M49.6203 37.863C49.9173 37.457 50.9438 36.647 51.9018 36.063C52.8593 35.4795 54.4303 35.0015 55.3928 35.0015C56.3553 35.0015 57.8598 35.439 58.7358 35.973C59.6123 36.5075 60.6078 37.463 60.9483 38.096C61.2893 38.7295 61.7858 40.148 62.0518 41.248C62.3178 42.348 62.5108 44.4855 62.4808 45.998C62.4508 47.5105 62.2483 51.223 62.0308 54.248C61.7343 58.373 61.3653 60.2545 60.5543 61.7745C59.9593 62.889 58.8863 64.0685 58.1693 64.395C57.1588 64.8555 56.6478 64.8535 55.9003 64.3865C55.3693 64.055 54.3803 62.7635 53.7023 61.516C53.0238 60.2685 51.6643 56.8415 50.6808 53.9C49.6973 50.9585 48.8928 48.0495 48.8928 47.4355C48.8928 46.8215 48.6338 45.603 48.3173 44.7275C47.8698 43.49 47.8908 42.6315 48.4113 40.8685C48.7793 39.6215 49.3238 38.269 49.6203 37.863Z" fill="white"/>
<path d="M66.9493 66.877C67.5818 65.5265 68.6718 64.1105 69.3713 63.73C70.0708 63.3495 71.3853 63.029 72.2928 63.018C73.1998 63.007 74.6163 63.3465 75.4398 63.7725C76.2633 64.198 77.3763 65.267 77.9128 66.1475C78.4498 67.0275 78.8893 68.5355 78.8893 69.498C78.8893 70.4605 78.4498 71.9685 77.9128 72.8485C77.3763 73.729 76.2633 74.798 75.4398 75.2235C74.6163 75.6495 73.1773 75.998 72.2418 75.998C71.2958 75.998 69.8143 75.4985 68.9048 74.873C67.8398 74.141 67.0123 72.977 66.5338 71.5405C65.8408 69.4575 65.8643 69.194 66.9493 66.877Z" fill="white"/>
<path d="M52.8928 73.498C52.8928 71.983 53.2578 71.233 54.6928 69.798C56.0638 68.427 56.9038 67.998 58.2178 67.998C59.1663 67.998 60.5623 68.3185 61.3203 68.7105C62.0783 69.1025 62.9668 70.013 63.2953 70.734C63.6238 71.455 63.8928 72.7885 63.8928 73.6975C63.8928 74.6065 63.3788 76.1145 62.7508 77.049C61.7368 78.558 61.3258 78.7645 59.0743 78.8965C56.7368 79.0335 56.3983 78.9035 54.7163 77.2215C53.2583 75.7635 52.8928 75.0175 52.8928 73.498Z" fill="white"/>
</svg>
