<svg width="117" height="115" viewBox="0 0 117 115" fill="none" xmlns="http://www.w3.org/2000/svg">
<path d="M101.5 51C101.5 59.7503 99.2745 67.9808 95.3586 75.1563C100.193 77.6464 103.5 82.6871 103.5 88.5C103.5 96.7843 96.7843 103.5 88.5 103.5C82.6871 103.5 77.6464 100.193 75.1563 95.3586C67.9808 99.2745 59.7503 101.5 51 101.5C23.1096 101.5 0.5 78.8904 0.5 51C0.5 23.1096 23.1096 0.5 51 0.5C78.8904 0.5 101.5 23.1096 101.5 51ZM108.5 114.5C104.082 114.5 100.5 110.918 100.5 106.5C100.5 102.082 104.082 98.5 108.5 98.5C112.918 98.5 116.5 102.082 116.5 106.5C116.5 110.918 112.918 114.5 108.5 114.5Z" fill="#0A7CFF" stroke="#1A1A1A"/>
<path d="M52.4918 31.5775C52.8498 30.3545 53.8963 28.599 54.8178 27.676C56.3833 26.1075 56.7098 25.998 59.8178 26C62.2333 26.001 63.5808 26.269 64.7433 26.978C65.6238 27.5145 66.6928 28.6275 67.1183 29.451C67.6218 30.424 67.8928 32.302 67.8928 34.8125C67.8928 36.938 67.6843 39.368 67.4293 40.2125C67.1743 41.057 66.2323 44.1105 65.3363 46.998C64.4403 49.8855 63.1873 53.307 62.5523 54.601C61.9178 55.895 60.9048 57.414 60.3013 57.976C59.6978 58.538 58.6278 58.991 57.9233 58.982C57.2193 58.9735 56.2883 58.692 55.8553 58.357C55.4223 58.022 54.6393 57.09 54.1153 56.2855C53.5913 55.481 52.9663 53.456 52.7258 51.7855C52.4853 50.115 52.1878 45.385 52.0648 41.2745C51.9068 36.0115 52.0333 33.1435 52.4918 31.5775Z" fill="white"/>
<path d="M33.6203 37.863C33.9173 37.457 34.9438 36.647 35.9018 36.063C36.8593 35.4795 38.4303 35.0015 39.3928 35.0015C40.3553 35.0015 41.8598 35.439 42.7358 35.973C43.6123 36.5075 44.6078 37.463 44.9483 38.096C45.2893 38.7295 45.7858 40.148 46.0518 41.248C46.3178 42.348 46.5108 44.4855 46.4808 45.998C46.4508 47.5105 46.2483 51.223 46.0308 54.248C45.7343 58.373 45.3653 60.2545 44.5543 61.7745C43.9593 62.889 42.8863 64.0685 42.1693 64.395C41.1588 64.8555 40.6478 64.8535 39.9003 64.3865C39.3693 64.055 38.3803 62.7635 37.7023 61.516C37.0238 60.2685 35.6643 56.8415 34.6808 53.9C33.6973 50.9585 32.8928 48.0495 32.8928 47.4355C32.8928 46.8215 32.6338 45.603 32.3173 44.7275C31.8698 43.49 31.8908 42.6315 32.4113 40.8685C32.7793 39.6215 33.3238 38.269 33.6203 37.863Z" fill="white"/>
<path d="M50.9493 66.877C51.5818 65.5265 52.6718 64.1105 53.3713 63.73C54.0708 63.3495 55.3853 63.029 56.2928 63.018C57.1998 63.007 58.6163 63.3465 59.4398 63.7725C60.2633 64.198 61.3763 65.267 61.9128 66.1475C62.4498 67.0275 62.8893 68.5355 62.8893 69.498C62.8893 70.4605 62.4498 71.9685 61.9128 72.8485C61.3763 73.729 60.2633 74.798 59.4398 75.2235C58.6163 75.6495 57.1773 75.998 56.2418 75.998C55.2958 75.998 53.8143 75.4985 52.9048 74.873C51.8398 74.141 51.0123 72.977 50.5338 71.5405C49.8408 69.4575 49.8643 69.194 50.9493 66.877Z" fill="white"/>
<path d="M36.8928 73.498C36.8928 71.983 37.2578 71.233 38.6928 69.798C40.0638 68.427 40.9038 67.998 42.2178 67.998C43.1663 67.998 44.5623 68.3185 45.3203 68.7105C46.0783 69.1025 46.9668 70.013 47.2953 70.734C47.6238 71.455 47.8928 72.7885 47.8928 73.6975C47.8928 74.6065 47.3788 76.1145 46.7508 77.049C45.7368 78.558 45.3258 78.7645 43.0743 78.8965C40.7368 79.0335 40.3983 78.9035 38.7163 77.2215C37.2583 75.7635 36.8928 75.0175 36.8928 73.498Z" fill="white"/>
</svg>
