<svg width="117" height="115" viewBox="0 0 117 115" fill="none" xmlns="http://www.w3.org/2000/svg">
<path d="M101.5 51C101.5 59.7503 99.2745 67.9808 95.3586 75.1563C100.193 77.6464 103.5 82.6871 103.5 88.5C103.5 96.7843 96.7843 103.5 88.5 103.5C82.6871 103.5 77.6464 100.193 75.1563 95.3586C67.9808 99.2745 59.7503 101.5 51 101.5C23.1096 101.5 0.5 78.8904 0.5 51C0.5 23.1096 23.1096 0.5 51 0.5C78.8904 0.5 101.5 23.1096 101.5 51ZM108.5 114.5C104.082 114.5 100.5 110.918 100.5 106.5C100.5 102.082 104.082 98.5 108.5 98.5C112.918 98.5 116.5 102.082 116.5 106.5C116.5 110.918 112.918 114.5 108.5 114.5Z" fill="#0A7CFF" stroke="#1A1A1A"/>
<path d="M39.1797 30.704C39.3092 30.13 39.8862 29.0615 40.4622 28.329C41.3342 27.2205 41.9007 27.0005 43.8482 27.014C45.1342 27.0225 46.5412 27.304 46.9742 27.639C47.4072 27.974 48.1707 28.876 48.6702 29.6435C49.1697 30.411 49.8117 31.986 50.0967 33.1435C50.3812 34.301 50.6147 38.2855 50.6147 41.998C50.6147 45.7105 50.3752 49.7285 50.0827 50.927C49.7902 52.1255 49.1092 53.7005 48.5697 54.427C47.9242 55.2955 47.0182 55.804 45.9257 55.911C45.0117 56.001 43.7687 55.8095 43.1637 55.486C42.5592 55.162 41.5857 54.0455 41.0007 53.0045C40.4152 51.9635 39.9367 50.625 39.9367 50.03C39.9367 49.435 39.5862 48.2705 39.1577 47.442C38.5917 46.3475 38.0797 45.9785 37.2827 46.092C36.3237 46.2285 36.1457 46.654 35.8607 49.498C35.6812 51.2855 35.3717 53.3755 35.1737 54.142C34.9672 54.9395 34.2077 55.8495 33.3997 56.267C32.6222 56.669 31.2227 56.998 30.2892 56.998C29.2982 56.998 28.2722 56.634 27.8247 56.123C27.4027 55.6415 26.6547 54.4605 26.1627 53.498C25.6707 52.5355 25.0457 50.848 24.7737 49.748C24.5022 48.648 24.1912 44.4435 24.0837 40.405C23.8952 33.368 23.9392 32.9595 25.1362 30.598C26.1182 28.6595 26.7107 28.068 27.9107 27.828C28.7502 27.6605 30.1232 27.6605 30.9627 27.828C32.1572 28.067 32.7542 28.658 33.7127 30.549C34.3857 31.8775 34.9367 33.725 34.9367 34.654C34.9367 35.6865 35.3112 36.682 35.8997 37.2145C36.4292 37.6935 37.2727 38.0075 37.7747 37.912C38.5182 37.7705 38.7102 37.1855 38.8152 34.743C38.8862 33.096 39.0502 31.2785 39.1797 30.704Z" fill="white"/>
<path d="M42.9367 62.9885C42.9367 61.1115 43.2037 60.367 44.2547 59.316C45.0347 58.5365 46.1302 57.998 46.9367 57.998C47.7292 57.998 48.8307 58.528 49.5657 59.2635C50.2617 59.959 50.9872 61.3655 51.1782 62.3885C51.3692 63.411 51.6347 66.2445 51.7682 68.6845C51.9267 71.584 51.7817 73.8985 51.3487 75.366C50.9847 76.6005 50.1497 78.148 49.4937 78.8045C48.8372 79.461 47.9047 79.998 47.4212 79.998C46.9372 79.998 46.0282 79.4645 45.4007 78.813C44.7737 78.161 43.8812 76.417 43.4177 74.938C42.9302 73.3805 42.2832 72.248 41.8812 72.248C41.4307 72.248 41.0937 73.0385 40.9217 74.498C40.7757 75.7355 40.2437 77.4415 39.7382 78.289C39.2332 79.1365 38.3932 80.097 37.8707 80.423C37.1222 80.8905 36.6247 80.8625 35.5177 80.29C34.7457 79.8905 33.8897 79.268 33.6152 78.906C33.3412 78.544 32.8607 77.348 32.5472 76.248C32.2342 75.148 31.8277 73.4605 31.6442 72.498C31.4612 71.5355 31.3152 69.2855 31.3202 67.498C31.3252 65.7105 31.4892 63.4185 31.6842 62.4045C31.8792 61.3905 32.4437 60.194 32.9387 59.746C33.5257 59.215 34.5017 58.9865 35.7467 59.09C37.2712 59.216 37.8837 59.5895 38.7957 60.947C39.4847 61.9725 39.9367 63.3975 39.9367 64.5425C39.9367 65.5855 40.1757 66.587 40.4682 66.7675C40.7607 66.948 41.4357 66.7015 41.9682 66.2195C42.6652 65.589 42.9367 64.6825 42.9367 62.9885Z" fill="white"/>
<path fill-rule="evenodd" clip-rule="evenodd" d="M61.9632 28.0525C61.0152 28.6305 59.5902 29.7985 58.7957 30.649C58.0017 31.499 56.6642 33.5565 55.8237 35.2215C54.9832 36.886 54.0662 38.923 53.7862 39.748C53.5062 40.573 53.0942 43.3855 52.8702 45.998C52.6467 48.6105 52.4017 51.648 52.3252 52.748L52.1867 54.748L54.1867 54.894C55.9217 55.0205 56.4822 54.772 58.4167 53.019C60.4652 51.1625 60.8752 50.998 63.4532 50.998C66.1307 50.998 66.3827 51.113 68.9367 53.498C70.7737 55.2135 72.0352 55.998 72.9572 55.998C73.7417 55.998 74.8482 55.45 75.6187 54.68C76.6082 53.6905 76.9367 52.8575 76.9367 51.3405C76.9367 50.2285 76.7312 48.628 76.4802 47.7835C76.2287 46.939 75.5347 44.7855 74.9377 42.998C74.3412 41.2105 73.5162 38.848 73.1052 37.748C72.6937 36.648 71.5792 34.266 70.6277 32.4545C69.3582 30.036 68.3867 28.873 66.9742 28.0795C65.9162 27.4845 64.7437 26.999 64.3687 27C63.9937 27.001 62.9112 27.4745 61.9632 28.0525ZM65.2517 43.873C65.0862 43.2545 64.9473 42.0165 64.9437 41.123C64.9397 40.2295 64.7252 39.498 64.4662 39.498C64.2072 39.498 63.8157 39.7795 63.5952 40.123C63.3752 40.467 62.9242 41.5205 62.5932 42.465C62.2622 43.4095 62.1047 44.3655 62.2437 44.59C62.3822 44.8145 63.1837 44.998 64.0247 44.998C65.3662 44.998 65.5162 44.86 65.2517 43.873Z" fill="white"/>
<path fill-rule="evenodd" clip-rule="evenodd" d="M61.1862 57.917C60.3607 58.4205 58.8417 60.253 57.8112 61.99C56.7802 63.7265 55.9367 65.35 55.9367 65.5975C55.9367 65.845 55.5492 66.7675 55.0752 67.648C54.6017 68.528 54.0787 70.9355 53.9142 72.998C53.7492 75.0605 53.4437 77.1265 53.2352 77.589C52.9497 78.2215 53.2472 78.633 54.4322 79.2455C55.7462 79.9255 56.1467 79.9515 56.8387 79.4045C57.2952 79.0435 58.1687 78.262 58.7802 77.6685C59.7537 76.7225 60.2822 76.622 63.0392 76.8565C65.7382 77.0855 66.3522 77.3285 67.3477 78.561C68.1252 79.523 68.9702 79.998 69.9047 79.998C70.7462 79.998 71.8242 79.4745 72.6187 78.68C73.3437 77.955 73.9367 77.127 73.9367 76.8405C73.9367 76.5535 73.7322 75.628 73.4817 74.7835C73.2317 73.939 72.7697 72.348 72.4547 71.248C72.1397 70.148 71.4642 68.2355 70.9537 66.998C70.4427 65.7605 69.7732 64.0655 69.4652 63.232C69.1572 62.398 68.4062 61.135 67.7962 60.425C67.1857 59.7155 65.8992 58.6545 64.9367 58.068C63.9742 57.4815 63.0742 57.0015 62.9367 57.0015C62.7992 57.0015 62.0112 57.4135 61.1862 57.917ZM63.7637 71.385C64.2457 70.9035 64.3812 70.2015 64.1617 69.326C63.9782 68.5955 63.6357 67.998 63.4002 67.998C63.1647 67.998 62.7392 68.433 62.4542 68.965C62.1697 69.497 61.9367 70.2715 61.9367 70.6855C61.9367 71.1 62.1832 71.5915 62.4847 71.7775C62.7862 71.964 63.3617 71.7875 63.7637 71.385Z" fill="white"/>
</svg>
